<svg xmlns="http://www.w3.org/2000/svg" xmlns:xlink="http://www.w3.org/1999/xlink" width="300.745" height="718.172" viewBox="0 0 300.745 718.172"><defs><style>.a{fill:url(#a);}.b{filter:url(#h);}</style><linearGradient id="a" x1="0.5" x2="0.5" y2="1.12" gradientUnits="objectBoundingBox"><stop offset="0" stop-color="#36ebbb"/><stop offset="1" stop-color="#104583"/></linearGradient><filter id="b" x="54.635" y="442.142" width="189.529" height="287.12" filterUnits="userSpaceOnUse"><feOffset dy="3" input="SourceAlpha"/><feGaussianBlur stdDeviation="3" result="c"/><feFlood flood-opacity="0.161"/><feComposite operator="in" in2="c"/><feComposite in="SourceGraphic"/></filter><filter id="e" x="-315.855" y="-92.839" width="709.225" height="708.762" filterUnits="userSpaceOnUse"><feOffset dy="3" input="SourceAlpha"/><feGaussianBlur stdDeviation="3" result="f"/><feFlood flood-opacity="0.161"/><feComposite operator="in" in2="f"/><feComposite in="SourceGraphic"/></filter><filter id="h" x="0" y="0" width="300.745" height="718.172" filterUnits="userSpaceOnUse"><feOffset dy="3" input="SourceAlpha"/><feGaussianBlur stdDeviation="3" result="i"/><feFlood flood-opacity="0.161"/><feComposite operator="in" in2="i"/><feComposite in="SourceGraphic"/></filter></defs><g class="b" transform="matrix(1, 0, 0, 1, 0, 0)"><path class="a" d="M-1672.852,1046.172a35.756,35.756,0,0,1-14.417-3.046,37.836,37.836,0,0,1-12.372-8.745,40.786,40.786,0,0,1-8.509-13.7l-62.5-165.415a43.451,43.451,0,0,1-1.881-6.452,254.041,254.041,0,0,1-42.61,3.612,253.021,253.021,0,0,1-29.362-1.715V773.7a177.82,177.82,0,0,0,29.545,2.477,178.178,178.178,0,0,0,45.155-5.823,177.522,177.522,0,0,0,42.173-17.076,175.645,175.645,0,0,0,36.862-27.739,177.452,177.452,0,0,0,29.223-37.814,179.007,179.007,0,0,0,14.762-32.763,176.475,176.475,0,0,0,7.708-33.988,177.132,177.132,0,0,0,.913-34.244,178.233,178.233,0,0,0-5.622-33.532,178.243,178.243,0,0,0-11.9-31.851,177.145,177.145,0,0,0-17.913-29.2,176.49,176.49,0,0,0-23.669-25.581,179.016,179.016,0,0,0-29.166-20.993,177.638,177.638,0,0,0-43.3-17.906,175.223,175.223,0,0,0-44.851-5.836,177.132,177.132,0,0,0-29.921,2.557V347.8a254.357,254.357,0,0,1,30.143-1.8,251.394,251.394,0,0,1,64.217,8.332,253.447,253.447,0,0,1,61.92,25.575,254.632,254.632,0,0,1,41.6,29.96,251.49,251.49,0,0,1,33.752,36.533,252.883,252.883,0,0,1,25.538,41.715,254.849,254.849,0,0,1,16.956,45.505,255.023,255.023,0,0,1,8,47.9,253.381,253.381,0,0,1-1.315,48.91,252.17,252.17,0,0,1-11,48.526,255.316,255.316,0,0,1-21.059,46.75,253.991,253.991,0,0,1-45.867,58.028,251.932,251.932,0,0,1-58.4,41.065l62.465,165.331a42.983,42.983,0,0,1,2.779,15.916,43.061,43.061,0,0,1-3.034,15.294,40.917,40.917,0,0,1-8.173,12.95,37.728,37.728,0,0,1-12.619,8.9c-.264.115-.54.23-.822.343A35.711,35.711,0,0,1-1672.852,1046.172Z" transform="translate(1853.5 -340)"/></g></svg>