<svg xmlns="http://www.w3.org/2000/svg" xmlns:xlink="http://www.w3.org/1999/xlink" width="307.871" height="506.31" viewBox="0 0 307.871 506.31"><defs><style>.a{opacity:0.061;fill:url(#b);}</style><linearGradient id="a" x1="0.5" y1="1" x2="0.5" y2="-0.12" gradientUnits="objectBoundingBox"><stop offset="0" stop-color="#36ebbb"/><stop offset="1" stop-color="#104583"/></linearGradient><linearGradient id="b" y1="0" y2="1.12" xlink:href="#a"/></defs><path class="a" d="M68.137,506.31h.016a226.874,226.874,0,0,0,76.725-13.359A234.068,234.068,0,0,0,179.943,477,240.552,240.552,0,0,0,212,455.52a246.736,246.736,0,0,0,28.455-26.5A251.831,251.831,0,0,0,264.706,398a257.362,257.362,0,0,0,33.468-73.619,268.151,268.151,0,0,0,7.881-40.4,269.6,269.6,0,0,0,1.282-48.215,264.663,264.663,0,0,0-7.089-46.229,261.734,261.734,0,0,0-14.769-43.308,257.9,257.9,0,0,0-21.758-39.452,251.694,251.694,0,0,0-28.056-34.66A243.563,243.563,0,0,0,202,43.184a235.732,235.732,0,0,0-38.58-22.271A231.637,231.637,0,0,0,120.615,6.239l-8.87,76.125a163.424,163.424,0,0,1,28.492,11.165,166.883,166.883,0,0,1,25.637,16.026,172.089,172.089,0,0,1,22.332,20.3,177.034,177.034,0,0,1,18.577,23.976,180.572,180.572,0,0,1,14.371,27.066,182.721,182.721,0,0,1,9.715,29.566,184.58,184.58,0,0,1,4.609,31.475,188.167,188.167,0,0,1-.947,32.795,187.448,187.448,0,0,1-6.73,32.489,181.772,181.772,0,0,1-11.943,29.739,178.025,178.025,0,0,1-16.563,26.5,174.437,174.437,0,0,1-20.591,22.777A170.063,170.063,0,0,1,154.68,404.8a165.15,165.15,0,0,1-26.869,13.864A161.057,161.057,0,0,1,0,415.4V496A231.229,231.229,0,0,0,68.137,506.31ZM0,91.117H0v0A162.627,162.627,0,0,1,31,80.407a160.48,160.48,0,0,1,33.059-4.213L72.933.07C71.046.023,69.149,0,67.295,0A226.915,226.915,0,0,0,0,10.214Z" transform="translate(-0.002 0)"/></svg>