<svg xmlns="http://www.w3.org/2000/svg" 
    xmlns:xlink="http://www.w3.org/1999/xlink" width="324.585" height="453.908" viewBox="0 0 324.585 453.908">
    <defs>
        <style>.a{opacity:0.418;fill:url(#a);}</style>
        <linearGradient id="a" x1="0.5" x2="0.5" y2="1.12" gradientUnits="objectBoundingBox">
            <stop offset="0" stop-color="#36ebbb"/>
            <stop offset="1" stop-color="#104583"/>
        </linearGradient>
    </defs>
    <path class="a" d="M-1373.334,733.408h-.022a250.805,250.805,0,0,1-80.163-13.118,253.459,253.459,0,0,1-36.678-15.673,255.013,255.013,0,0,1-33.589-21.1,255.312,255.312,0,0,1-29.884-26.048,254.337,254.337,0,0,1-25.564-30.511,251.424,251.424,0,0,1-35.7-72.47,255.881,255.881,0,0,1-9.23-43.507,256.091,256.091,0,0,1-1.352-48.237,252.324,252.324,0,0,1,7.474-46.251,252.875,252.875,0,0,1,15.571-43.328,254.43,254.43,0,0,1,22.938-39.469,254.845,254.845,0,0,1,29.579-34.675,254.623,254.623,0,0,1,22.436-19.517h104.557l3.655,29.768a177.927,177.927,0,0,0-30.039,11.17,177.7,177.7,0,0,0-27.029,16.033,178.406,178.406,0,0,0-23.545,20.3,178.626,178.626,0,0,0-19.585,23.988,177.665,177.665,0,0,0-15.151,27.078,176.286,176.286,0,0,0-10.243,29.579,175.859,175.859,0,0,0-4.86,31.49,178.743,178.743,0,0,0,1,32.809,179.239,179.239,0,0,0,7.1,32.5,176.558,176.558,0,0,0,12.591,29.753,176.892,176.892,0,0,0,17.462,26.514,178.05,178.05,0,0,0,21.708,22.788,178.48,178.48,0,0,0,25.329,18.573,177.735,177.735,0,0,0,28.327,13.871,176.611,176.611,0,0,0,30.7,8.68,176.944,176.944,0,0,0,32.447,3,180.42,180.42,0,0,0,21.889-1.344,177.261,177.261,0,0,0,49.716-13.6V723.1a255.609,255.609,0,0,1-40.707,8.4A256.663,256.663,0,0,1-1373.334,733.408Zm71.834-415.383h0a177.782,177.782,0,0,0-32.683-10.714,177.827,177.827,0,0,0-34.854-4.214l-2.9-23.6h70.437Z" transform="translate(1626.085 -279.5)"/>
</svg>