<svg xmlns="http://www.w3.org/2000/svg" 
    xmlns:xlink="http://www.w3.org/1999/xlink" width="45.542" height="56.171" viewBox="0 0 45.542 56.171">
    <defs>
        <style>.a{fill:url(#a);}.b{filter:url(#h);}</style>
        <linearGradient id="a" x1="0.5" x2="0.5" y2="1.12" gradientUnits="objectBoundingBox">
            <stop offset="0" stop-color="#36ebbb"/>
            <stop offset="1" stop-color="#104583"/>
        </linearGradient>
        <filter id="b" x="15.127" y="24.107" width="27.348" height="32.667" filterUnits="userSpaceOnUse">
            <feOffset dy="3" input="SourceAlpha"/>
            <feGaussianBlur stdDeviation="3" result="c"/>
            <feFlood flood-opacity="0.161"/>
            <feComposite operator="in" in2="c"/>
            <feComposite in="SourceGraphic"/>
        </filter>
        <filter id="e" x="-5.029" y="-5.04" width="55.627" height="55.616" filterUnits="userSpaceOnUse">
            <feOffset dy="3" input="SourceAlpha"/>
            <feGaussianBlur stdDeviation="3" result="f"/>
            <feFlood flood-opacity="0.161"/>
            <feComposite operator="in" in2="f"/>
            <feComposite in="SourceGraphic"/>
        </filter>
        <filter id="h" x="0" y="0" width="45.542" height="56.171" filterUnits="userSpaceOnUse">
            <feOffset dy="3" input="SourceAlpha"/>
            <feGaussianBlur stdDeviation="3" result="i"/>
            <feFlood flood-opacity="0.161"/>
            <feComposite operator="in" in2="i"/>
            <feComposite in="SourceGraphic"/>
        </filter>
    </defs>
    <g class="b" transform="matrix(1, 0, 0, 1, 0, 0)">
        <path class="a" d="M-7847.222,130.845a2.064,2.064,0,0,1-.672-.476,2.231,2.231,0,0,1-.463-.747l-3.4-9.018a2.363,2.363,0,0,1-.1-.352,13.737,13.737,0,0,1-2.317.2,13.66,13.66,0,0,1-5.653-1.225l2.086-3.623a9.619,9.619,0,0,0,11.918-4.132,9.671,9.671,0,0,0-3.527-13.2,9.548,9.548,0,0,0-8.3-.629l-2.047-3.624a13.7,13.7,0,0,1,12.427.674,13.819,13.819,0,0,1,5.028,18.852,13.738,13.738,0,0,1-5.669,5.4l3.4,9.013a2.358,2.358,0,0,1,.151.868,2.372,2.372,0,0,1-.165.834,2.241,2.241,0,0,1-.445.706,2.054,2.054,0,0,1-.686.485l-.045.019a1.943,1.943,0,0,1-.73.144A1.945,1.945,0,0,1-7847.222,130.845Zm-18.872-31.11a13.614,13.614,0,0,1,3.851-4.259l2.047,3.624a9.814,9.814,0,0,0-2.321,2.705,9.674,9.674,0,0,0,2.39,12.415l-2.086,3.623A13.837,13.837,0,0,1-7866.094,99.735Z" transform="translate(7876.94 -86.84)"/>
    </g>
</svg>