<svg xmlns="http://www.w3.org/2000/svg" xmlns:xlink="http://www.w3.org/1999/xlink" width="64" height="62" viewBox="0 0 64 62"><defs><style>.a{fill:#26a8a4;}.b{filter:url(#a);}</style><filter id="a" x="0" y="0" width="64" height="62" filterUnits="userSpaceOnUse"><feOffset dy="3" input="SourceAlpha"/><feGaussianBlur stdDeviation="3" result="b"/><feFlood flood-opacity="0.161"/><feComposite operator="in" in2="b"/><feComposite in="SourceGraphic"/></filter></defs><g class="b" transform="matrix(1, 0, 0, 1, 0, 0)"><path class="a" d="M-1954,44h-26a10.011,10.011,0,0,1-10-10V10a10.011,10.011,0,0,1,10-10h26a10.011,10.011,0,0,1,10,10V34A10.011,10.011,0,0,1-1954,44Zm-24-35a4,4,0,0,0-4,4V27a4,4,0,0,0,4,4h7.9l3.6,4,3.6-4h6.9a4,4,0,0,0,4-4V13a4,4,0,0,0-4-4Zm20,15h-18a1,1,0,0,1-1-1,1,1,0,0,1,1-1h18a1,1,0,0,1,1,1A1,1,0,0,1-1958,24Zm0-6h-18a1,1,0,0,1-1-1,1,1,0,0,1,1-1h18a1,1,0,0,1,1,1A1,1,0,0,1-1958,18Z" transform="translate(1999 6)"/></g></svg>