<svg xmlns="http://www.w3.org/2000/svg" xmlns:xlink="http://www.w3.org/1999/xlink" width="59.755" height="59.758" viewBox="0 0 59.755 59.758"><defs><style>.a{fill:#26a6a3;}.b{filter:url(#a);}</style><filter id="a" x="0" y="0" width="59.755" height="59.758" filterUnits="userSpaceOnUse"><feOffset dy="3" input="SourceAlpha"/><feGaussianBlur stdDeviation="3" result="b"/><feFlood flood-opacity="0.161"/><feComposite operator="in" in2="b"/><feComposite in="SourceGraphic"/></filter></defs><g class="b" transform="matrix(1, 0, 0, 1, 0, 0)"><path class="a" d="M46.257,21.018H30.528l6.356-6.542a16.329,16.329,0,0,0-22.92-.232,15.949,15.949,0,0,0,0,22.712,16.285,16.285,0,0,0,22.92,0,15.11,15.11,0,0,0,4.733-11.344h4.64A21.669,21.669,0,0,1,40.132,40.2a21,21,0,0,1-29.509,0,20.507,20.507,0,0,1-.046-29.184,20.849,20.849,0,0,1,29.347,0L46.257,4.5ZM26.538,16.1v9.86l8.12,4.825-1.67,2.807L23.058,27.7V16.1Z" transform="translate(4.5 1.5)"/></g></svg>